<svg width="64" height="63" viewBox="0 0 64 63" fill="none" xmlns="http://www.w3.org/2000/svg">
<path d="M24.125 57.75C22.55 57.75 21.5 56.7 21.5 55.125V47.25H11C8.1125 47.25 5.75 44.8875 5.75 42V10.5C5.75 7.6125 8.1125 5.25 11 5.25H53C55.8875 5.25 58.25 7.6125 58.25 10.5V42C58.25 44.8875 55.8875 47.25 53 47.25H36.9875L27.275 56.9625C26.75 57.4875 26.225 57.75 25.4375 57.75H24.125ZM26.75 42V50.1375L34.8875 42H53V10.5H11V42H26.75ZM43.2875 15.75L39.6125 23.625H45.125V34.125H34.625V23.1L38.0375 15.75H43.2875ZM27.5375 15.75L23.8625 23.625H29.375V34.125H18.875V23.1L22.2875 15.75H27.5375Z" fill="#528BFD"/>
</svg>
