<svg width="24" height="25" viewBox="0 0 24 25" fill="none" xmlns="http://www.w3.org/2000/svg">
<path d="M12 13.5V4.5M7 14.5H5C4.73478 14.5 4.48043 14.6054 4.29289 14.7929C4.10536 14.9804 4 15.2348 4 15.5V19.5C4 19.7652 4.10536 20.0196 4.29289 20.2071C4.48043 20.3946 4.73478 20.5 5 20.5H19C19.2652 20.5 19.5196 20.3946 19.7071 20.2071C19.8946 20.0196 20 19.7652 20 19.5V15.5C20 15.2348 19.8946 14.9804 19.7071 14.7929C19.5196 14.6054 19.2652 14.5 19 14.5H17M16 9.5L12 14.5L8 9.5M17 17.5H17.01" stroke="#1E1E1E" stroke-width="2" stroke-linecap="round" stroke-linejoin="round"/>
</svg>
