<svg width="64" height="64" viewBox="0 0 64 64" fill="none" xmlns="http://www.w3.org/2000/svg">
<rect width="64" height="64" rx="32" fill="white"/>
<mask id="mask0_4_263" style="mask-type:luminance" maskUnits="userSpaceOnUse" x="16" y="16" width="32" height="32">
<path d="M16 16H48V48H16V16Z" fill="white"/>
</mask>
<g mask="url(#mask0_4_263)">
<path fill-rule="evenodd" clip-rule="evenodd" d="M32 16C23.16 16 16 23.16 16 32C16 39.08 20.58 45.06 26.94 47.18C27.74 47.32 28.04 46.84 28.04 46.42C28.04 46.04 28.02 44.78 28.02 43.44C24 44.18 22.96 42.46 22.64 41.56C22.46 41.1 21.68 39.68 21 39.3C20.44 39 19.64 38.26 20.98 38.24C22.24 38.22 23.14 39.4 23.44 39.88C24.88 42.3 27.18 41.62 28.1 41.2C28.24 40.16 28.66 39.46 29.12 39.06C25.56 38.66 21.84 37.28 21.84 31.16C21.84 29.42 22.46 27.98 23.48 26.86C23.32 26.46 22.76 24.82 23.64 22.62C23.64 22.62 24.98 22.2 28.04 24.26C29.32 23.9 30.68 23.72 32.04 23.72C33.4 23.72 34.76 23.9 36.04 24.26C39.1 22.18 40.44 22.62 40.44 22.62C41.32 24.82 40.76 26.46 40.6 26.86C41.62 27.98 42.24 29.4 42.24 31.16C42.24 37.3 38.5 38.66 34.94 39.06C35.52 39.56 36.02 40.52 36.02 42.02C36.02 44.16 36 45.88 36 46.42C36 46.84 36.3 47.34 37.1 47.18C40.2762 46.1076 43.0362 44.0662 44.9916 41.3432C46.9469 38.6201 47.999 35.3524 48 32C48 23.16 40.84 16 32 16Z" fill="#080922"/>
</g>
</svg>
