<svg width="129" height="128" viewBox="0 0 129 128" fill="none" xmlns="http://www.w3.org/2000/svg">
<path d="M17.4 75.8506V21.3333C17.4 18.5043 18.5238 15.7912 20.5242 13.7908C22.5246 11.7904 25.2377 10.6666 28.0667 10.6666H100.6C103.429 10.6666 106.142 11.7904 108.142 13.7908C110.143 15.7912 111.267 18.5043 111.267 21.3333V75.8506M17.4 75.8506H111.267M17.4 75.8506L9.50668 103.765C9.05837 105.351 8.9837 107.02 9.28854 108.639C9.59337 110.259 10.2694 111.786 11.2636 113.101C12.2578 114.415 13.5431 115.482 15.0186 116.216C16.4942 116.95 18.1198 117.333 19.768 117.333H108.899C110.547 117.333 112.173 116.95 113.648 116.216C115.124 115.482 116.409 114.415 117.403 113.101C118.397 111.786 119.073 110.259 119.378 108.639C119.683 107.02 119.608 105.351 119.16 103.765L111.267 75.8506" stroke="#528BFD" stroke-width="8"/>
<path d="M59 101.333H69.6667M75 32L85.6667 42.6667L75 53.3333M53.6667 32L43 42.6667L53.6667 53.3333" stroke="#528BFD" stroke-width="8" stroke-linecap="round" stroke-linejoin="round"/>
</svg>
