<svg width="128" height="128" viewBox="0 0 128 128" fill="none" xmlns="http://www.w3.org/2000/svg">
<path fill-rule="evenodd" clip-rule="evenodd" d="M74.368 6.66663H74.9653C84.768 6.66663 92.5333 6.66663 98.608 7.48263C104.859 8.32529 109.92 10.096 113.915 14.0853C117.904 18.08 119.675 23.1413 120.517 29.392C121.333 35.472 121.333 43.232 121.333 53.0346V74.9653C121.333 84.768 121.333 92.5333 120.517 98.608C119.675 104.859 117.904 109.92 113.915 113.915C109.92 117.904 104.859 119.675 98.608 120.517C92.528 121.333 84.768 121.333 74.9653 121.333H64C62.9391 121.333 61.9217 120.912 61.1715 120.162C60.4214 119.412 60 118.394 60 117.333C60 116.272 60.4214 115.255 61.1715 114.505C61.9217 113.755 62.9391 113.333 64 113.333H74.6666C84.8373 113.333 92.064 113.323 97.5466 112.587C102.907 111.867 106 110.512 108.256 108.256C110.512 106 111.867 102.907 112.587 97.5413C113.328 92.064 113.333 84.8373 113.333 74.6666V53.3333C113.333 43.1626 113.323 35.9413 112.587 30.4533C111.867 25.0933 110.512 22 108.256 19.744C106 17.488 102.907 16.1333 97.5413 15.4133C92.064 14.6773 84.8373 14.6666 74.6666 14.6666C64.496 14.6666 57.2746 14.6773 51.792 15.4133C46.4266 16.1333 43.3333 17.488 41.0773 19.744C37.3653 23.456 36.24 29.2213 36.048 42.7253C36.0403 43.2506 35.9292 43.7692 35.721 44.2516C35.5129 44.7339 35.2118 45.1705 34.8349 45.5365C34.458 45.9025 34.0127 46.1907 33.5245 46.3846C33.0362 46.5785 32.5146 46.6743 31.9893 46.6666C31.464 46.6589 30.9454 46.5478 30.463 46.3397C29.9807 46.1316 29.544 45.8305 29.1781 45.4536C28.8121 45.0767 28.5239 44.6314 28.33 44.1432C28.1361 43.6549 28.0403 43.1332 28.048 42.608C28.2346 29.664 29.072 20.432 35.4186 14.0853C39.4133 10.096 44.4746 8.32529 50.7253 7.48263C56.8053 6.66663 64.5653 6.66663 74.368 6.66663ZM29.1306 54.6666H29.536C33.1093 54.6666 36.0906 54.6666 38.5013 54.912C41.024 55.168 43.3706 55.728 45.4826 57.1413C47.0826 58.208 48.4586 59.584 49.5306 61.184C50.9386 63.296 51.4986 65.6373 51.7546 68.1653C52 70.576 52 73.5573 52 77.1253V98.8693C52 102.443 52 105.424 51.7546 107.835C51.4986 110.357 50.9386 112.704 49.5306 114.816C48.4534 116.414 47.077 117.789 45.4773 118.864C43.3706 120.272 41.024 120.832 38.5013 121.088C36.0906 121.333 33.1093 121.333 29.5413 121.333H29.1306C25.5573 121.333 22.576 121.333 20.1653 121.088C17.6426 120.832 15.296 120.272 13.184 118.859C11.5867 117.785 10.2121 116.412 9.13596 114.816C7.72796 112.704 7.16796 110.363 6.91196 107.835C6.66663 105.424 6.66663 102.443 6.66663 98.8746V77.1306C6.66663 73.5573 6.66663 70.576 6.91196 68.1653C7.16796 65.6373 7.72796 63.296 9.13596 61.184C10.208 59.584 11.584 58.208 13.1893 57.1413C15.296 55.728 17.6426 55.168 20.1653 54.912C22.576 54.6666 25.5626 54.6666 29.1306 54.6666ZM20.9653 62.8693C19.0773 63.0613 18.2026 63.4026 17.6266 63.792C16.9027 64.2837 16.2783 64.908 15.7866 65.632C15.3973 66.208 15.056 67.0826 14.864 68.976C14.6666 70.9333 14.6613 73.5093 14.6613 77.3333V98.6666C14.6613 102.496 14.6613 105.067 14.864 107.024C15.056 108.917 15.3973 109.792 15.7866 110.373C16.2666 111.099 16.896 111.723 17.6266 112.208C18.2026 112.597 19.0773 112.939 20.9706 113.131C22.928 113.328 25.504 113.333 29.328 113.333C33.1573 113.333 35.728 113.333 37.6853 113.131C39.5786 112.939 40.4533 112.597 41.0293 112.208C41.76 111.728 42.384 111.099 42.8693 110.373C43.2586 109.792 43.6 108.917 43.792 107.024C43.9893 105.067 43.9946 102.491 43.9946 98.6666V77.3333C43.9946 73.504 43.9946 70.9333 43.792 68.976C43.6 67.0826 43.2586 66.208 42.8693 65.632C42.3776 64.908 41.7533 64.2837 41.0293 63.792C40.4533 63.4026 39.5786 63.0613 37.6853 62.8693C35.728 62.672 33.152 62.6666 29.328 62.6666C25.4986 62.6666 22.9226 62.6666 20.9653 62.8693ZM60 101.333C60 100.272 60.4214 99.255 61.1715 98.5049C61.9217 97.7547 62.9391 97.3333 64 97.3333H90.6666C91.7275 97.3333 92.7449 97.7547 93.4951 98.5049C94.2452 99.255 94.6666 100.272 94.6666 101.333C94.6666 102.394 94.2452 103.412 93.4951 104.162C92.7449 104.912 91.7275 105.333 90.6666 105.333H64C62.9391 105.333 61.9217 104.912 61.1715 104.162C60.4214 103.412 60 102.394 60 101.333Z" fill="#528BFD"/>
</svg>
