<svg width="128" height="128" viewBox="0 0 128 128" fill="none" xmlns="http://www.w3.org/2000/svg">
<path d="M8 28C8 22.6957 10.1071 17.6086 13.8579 13.8579C17.6086 10.1071 22.6957 8 28 8H84C89.3043 8 94.3914 10.1071 98.1421 13.8579C101.893 17.6086 104 22.6957 104 28V40.24C101.343 39.9321 98.6596 39.9214 96 40.208V40H16V84C16 87.1826 17.2643 90.2348 19.5147 92.4853C21.7652 94.7357 24.8174 96 28 96H51.632L45.872 101.76C45.1722 102.458 44.5251 103.207 43.936 104H28C22.6957 104 17.6086 101.893 13.8579 98.1421C10.1071 94.3914 8 89.3043 8 84V28ZM71.448 53.792L66.832 49.168C66.4601 48.7961 66.0186 48.5011 65.5327 48.2998C65.0468 48.0985 64.526 47.9949 64 47.9949C63.474 47.9949 62.9532 48.0985 62.4673 48.2998C61.9814 48.5011 61.5399 48.7961 61.168 49.168C60.7961 49.5399 60.5011 49.9814 60.2998 50.4673C60.0985 50.9532 59.9949 51.474 59.9949 52C59.9949 52.526 60.0985 53.0468 60.2998 53.5327C60.5011 54.0186 60.7961 54.4601 61.168 54.832L67.128 60.784C68.28 58.3253 69.72 55.9947 71.448 53.792ZM16 32H96V28C96 24.8174 94.7357 21.7652 92.4853 19.5147C90.2348 17.2643 87.1826 16 84 16H28C24.8174 16 21.7652 17.2643 19.5147 19.5147C17.2643 21.7652 16 24.8174 16 28V32ZM50.832 54.832C51.2039 54.4601 51.4989 54.0186 51.7002 53.5327C51.9015 53.0468 52.0051 52.526 52.0051 52C52.0051 51.474 51.9015 50.9532 51.7002 50.4673C51.4989 49.9814 51.2039 49.5399 50.832 49.168C50.4601 48.7961 50.0186 48.5011 49.5327 48.2998C49.0468 48.0985 48.526 47.9949 48 47.9949C47.474 47.9949 46.9532 48.0985 46.4673 48.2998C45.9814 48.5011 45.5399 48.7961 45.168 49.168L29.168 65.168C28.7955 65.5396 28.5 65.981 28.2983 66.4669C28.0966 66.9529 27.9928 67.4739 27.9928 68C27.9928 68.5261 28.0966 69.0471 28.2983 69.5331C28.5 70.019 28.7955 70.4604 29.168 70.832L45.168 86.832C45.9191 87.5831 46.9378 88.0051 48 88.0051C49.0622 88.0051 50.0809 87.5831 50.832 86.832C51.5831 86.0809 52.0051 85.0622 52.0051 84C52.0051 82.9378 51.5831 81.9191 50.832 81.168L37.656 68L50.832 54.832ZM103.136 48.192C106.064 48.528 106.904 52.032 104.816 54.128L97.016 61.928C95.8961 63.0479 95.0077 64.3774 94.4016 65.8407C93.7955 67.3039 93.4836 68.8722 93.4836 70.456C93.4836 72.0398 93.7955 73.6081 94.4016 75.0713C95.0077 76.5346 95.8961 77.8641 97.016 78.984C98.1359 80.1039 99.4654 80.9923 100.929 81.5984C102.392 82.2045 103.96 82.5164 105.544 82.5164C107.128 82.5164 108.696 82.2045 110.159 81.5984C111.623 80.9923 112.952 80.1039 114.072 78.984L121.872 71.184C123.96 69.096 127.472 69.936 127.808 72.864C128.365 77.6184 127.7 82.4363 125.877 86.8623C124.053 91.2882 121.13 95.1758 117.386 98.1574C113.641 101.139 109.197 103.116 104.475 103.902C99.7531 104.688 94.9087 104.256 90.4 102.648L68.592 124.464C67.4721 125.584 66.1426 126.472 64.6793 127.078C63.2161 127.684 61.6478 127.996 60.064 127.996C58.4802 127.996 56.9119 127.684 55.4487 127.078C53.9854 126.472 52.6559 125.584 51.536 124.464C50.4161 123.344 49.5277 122.015 48.9216 120.551C48.3155 119.088 48.0036 117.52 48.0036 115.936C48.0036 114.352 48.3155 112.784 48.9216 111.321C49.5277 109.857 50.4161 108.528 51.536 107.408L73.344 85.6C71.7353 81.0906 71.3037 76.2454 72.0898 71.5226C72.8759 66.7999 74.8538 62.3557 77.8365 58.6106C80.8192 54.8654 84.7079 51.9431 89.135 50.12C93.562 48.2969 98.381 47.6333 103.136 48.192Z" fill="#528BFD"/>
</svg>
