<svg width="64" height="64" viewBox="0 0 64 64" fill="none" xmlns="http://www.w3.org/2000/svg">
<rect width="64" height="64" rx="32" fill="white"/>
<path d="M39.1111 16C41.4686 16 43.7295 16.9365 45.3965 18.6035C47.0635 20.2705 48 22.5314 48 24.8889V39.1111C48 41.4686 47.0635 43.7295 45.3965 45.3965C43.7295 47.0635 41.4686 48 39.1111 48H24.8889C22.5314 48 20.2705 47.0635 18.6035 45.3965C16.9365 43.7295 16 41.4686 16 39.1111V24.8889C16 22.5314 16.9365 20.2705 18.6035 18.6035C20.2705 16.9365 22.5314 16 24.8889 16H39.1111ZM32 24.8889C30.114 24.8889 28.3053 25.6381 26.9717 26.9717C25.6381 28.3053 24.8889 30.114 24.8889 32C24.8889 33.886 25.6381 35.6947 26.9717 37.0283C28.3053 38.3619 30.114 39.1111 32 39.1111C33.886 39.1111 35.6947 38.3619 37.0283 37.0283C38.3619 35.6947 39.1111 33.886 39.1111 32C39.1111 30.114 38.3619 28.3053 37.0283 26.9717C35.6947 25.6381 33.886 24.8889 32 24.8889ZM32 28.4444C32.943 28.4444 33.8474 28.819 34.5142 29.4858C35.181 30.1526 35.5556 31.057 35.5556 32C35.5556 32.943 35.181 33.8474 34.5142 34.5142C33.8474 35.181 32.943 35.5556 32 35.5556C31.057 35.5556 30.1526 35.181 29.4858 34.5142C28.819 33.8474 28.4444 32.943 28.4444 32C28.4444 31.057 28.819 30.1526 29.4858 29.4858C30.1526 28.819 31.057 28.4444 32 28.4444ZM40 22.2222C39.5285 22.2222 39.0763 22.4095 38.7429 22.7429C38.4095 23.0763 38.2222 23.5285 38.2222 24C38.2222 24.4715 38.4095 24.9237 38.7429 25.2571C39.0763 25.5905 39.5285 25.7778 40 25.7778C40.4715 25.7778 40.9237 25.5905 41.2571 25.2571C41.5905 24.9237 41.7778 24.4715 41.7778 24C41.7778 23.5285 41.5905 23.0763 41.2571 22.7429C40.9237 22.4095 40.4715 22.2222 40 22.2222Z" fill="#080922"/>
</svg>
