<svg width="64" height="64" viewBox="0 0 64 64" fill="none" xmlns="http://www.w3.org/2000/svg">
<rect width="64" height="64" rx="32" fill="white"/>
<path d="M32 16C23.1613 16 16 23.1613 16 32C16 40.8387 23.1613 48 32 48C40.8387 48 48 40.8387 48 32C48 23.1613 40.8387 16 32 16ZM39.8581 26.9613L37.2323 39.3355C37.0387 40.2129 36.5161 40.4258 35.7871 40.0129L31.7871 37.0645L29.8581 38.9226C29.6452 39.1355 29.4645 39.3161 29.0516 39.3161L29.3355 35.2452L36.7484 28.5484C37.071 28.2645 36.6774 28.1032 36.2516 28.3871L27.0903 34.1548L23.1419 32.9226C22.2839 32.6516 22.2645 32.0645 23.3226 31.6516L38.7484 25.7032C39.4645 25.4452 40.0903 25.8774 39.8581 26.9613Z" fill="#080922"/>
</svg>
