<svg width="64" height="64" viewBox="0 0 64 64" fill="none" xmlns="http://www.w3.org/2000/svg">
<rect width="64" height="64" rx="32" fill="white"/>
<path d="M32 16C40.8368 16 48 23.1632 48 32C48 40.8368 40.8368 48 32 48C29.1724 48.0048 26.3945 47.2565 23.952 45.832L16.0064 48L18.1696 40.0512C16.744 37.6079 15.9951 34.8288 16 32C16 23.1632 23.1632 16 32 16ZM26.5472 24.48L26.2272 24.4928C26.0203 24.507 25.8182 24.5614 25.632 24.6528C25.4585 24.7512 25.3001 24.8741 25.1616 25.0176C24.9696 25.1984 24.8608 25.3552 24.744 25.5072C24.1522 26.2766 23.8336 27.2213 23.8384 28.192C23.8416 28.976 24.0464 29.7392 24.3664 30.4528C25.0208 31.896 26.0976 33.424 27.5184 34.84C27.8608 35.1808 28.1968 35.5232 28.5584 35.8416C30.3239 37.3958 32.4277 38.5167 34.7024 39.1152L35.6112 39.2544C35.9072 39.2704 36.2032 39.248 36.5008 39.2336C36.9667 39.209 37.4216 39.0829 37.8336 38.864C38.043 38.7557 38.2474 38.6383 38.4464 38.512C38.4464 38.512 38.5141 38.4661 38.6464 38.368C38.8624 38.208 38.9952 38.0944 39.1744 37.9072C39.3088 37.7685 39.4208 37.6075 39.5104 37.424C39.6352 37.1632 39.76 36.6656 39.8112 36.2512C39.8496 35.9344 39.8384 35.7616 39.8336 35.6544C39.8272 35.4832 39.6848 35.3056 39.5296 35.2304L38.5984 34.8128C38.5984 34.8128 37.2064 34.2064 36.3552 33.8192C36.2661 33.7804 36.1707 33.7582 36.0736 33.7536C35.9641 33.7421 35.8535 33.7544 35.7491 33.7894C35.6448 33.8245 35.5492 33.8815 35.4688 33.9568C35.4608 33.9536 35.3536 34.0448 34.1968 35.4464C34.1304 35.5356 34.039 35.603 33.9341 35.6401C33.8292 35.6771 33.7157 35.6821 33.608 35.6544C33.5037 35.6266 33.4016 35.5913 33.3024 35.5488C33.104 35.4656 33.0352 35.4336 32.8992 35.376C31.9806 34.9758 31.1303 34.4344 30.3792 33.7712C30.1776 33.5952 29.9904 33.4032 29.7984 33.2176C29.169 32.6147 28.6204 31.9328 28.1664 31.1888L28.072 31.0368C28.0052 30.9341 27.9505 30.824 27.9088 30.7088C27.848 30.4736 28.0064 30.2848 28.0064 30.2848C28.0064 30.2848 28.3952 29.8592 28.576 29.6288C28.752 29.4048 28.9008 29.1872 28.9968 29.032C29.1856 28.728 29.2448 28.416 29.1456 28.1744C28.6976 27.08 28.2347 25.9915 27.7568 24.9088C27.6624 24.6944 27.3824 24.5408 27.128 24.5104C27.0416 24.4997 26.9552 24.4912 26.8688 24.4848C26.654 24.4725 26.4386 24.4746 26.224 24.4912L26.5472 24.48Z" fill="#080922"/>
</svg>
